<?xml version="1.0" encoding="utf-8"?>
<!-- Generator: Adobe Illustrator 23.0.5, SVG Export Plug-In . SVG Version: 6.00 Build 0)  -->
<svg version="1.1" id="Calque_1" xmlns="http://www.w3.org/2000/svg" xmlns:xlink="http://www.w3.org/1999/xlink" x="0px" y="0px"
	 viewBox="0 0 300 300" style="enable-background:new 0 0 300 300;" xml:space="preserve">
<style type="text/css">
	.st0{fill:none;stroke:#E52829;stroke-width:0.5;stroke-linecap:round;stroke-miterlimit:10;}
	.st1{fill:none;stroke:#E52829;stroke-linecap:round;stroke-miterlimit:10;}
	.st2{fill:#FFFFFF;stroke:#61BA77;stroke-miterlimit:10;}
	.st3{fill:#58BCEE;}
	.st4{font-family:'MyriadPro-Regular';}
	.st5{font-size:21.1903px;}
	.st6{fill:#61BA77;}
	.st7{fill:none;stroke:#58BCEE;stroke-miterlimit:10;}
	.st8{font-size:10.5951px;}
	.st9{fill:none;stroke:#58BCEE;stroke-width:0.5;stroke-linecap:round;stroke-miterlimit:10;}
	.st10{opacity:0.5;}
	.st11{fill:none;stroke:#E52829;stroke-linecap:round;stroke-miterlimit:10;stroke-dasharray:2.9876,4.9794;}
	.st12{opacity:0.5;fill:none;stroke:#E52829;stroke-linecap:round;stroke-miterlimit:10;stroke-dasharray:1,2;}
	.st13{opacity:0.5;fill:#E52829;}
</style>
<line class="st0" x1="35.37" y1="126.43" x2="184.63" y2="226.51"/>
<circle class="st1" cx="110" cy="176.3" r="89.94"/>
<g>
	<line class="st2" x1="179.97" y1="221.85" x2="188.99" y2="230.87"/>
	<line class="st2" x1="179.97" y1="230.87" x2="188.99" y2="221.85"/>
</g>
<g>
	<line class="st2" x1="30.85" y1="121.94" x2="39.86" y2="130.96"/>
	<line class="st2" x1="30.85" y1="130.96" x2="39.86" y2="121.94"/>
</g>
<g>
	<text transform="matrix(1 0 0 1 105.4961 200.124)" class="st3 st4 st5">X</text>
</g>
<text transform="matrix(1 0 0 1 20.0654 121.9385)" class="st6 st4 st5">P</text>
<text transform="matrix(1 0 0 1 191.5029 237.8076)" class="st6 st4 st5">Q</text>
<g>
	<line class="st7" x1="105.5" y1="171.79" x2="114.51" y2="180.81"/>
	<line class="st7" x1="105.5" y1="180.81" x2="114.51" y2="171.79"/>
</g>
<g>
	<line class="st2" x1="184.48" y1="166.12" x2="193.5" y2="175.14"/>
	<line class="st2" x1="184.48" y1="175.14" x2="193.5" y2="166.12"/>
</g>
<text transform="matrix(1 0 0 1 184.4834 186.4746)" class="st6 st4 st8">dummy</text>
<text transform="matrix(1 0 0 1 246.9961 54.542)" class="st6 st4 st5">S</text>
<g>
	<line class="st2" x1="237.98" y1="62.73" x2="247" y2="71.74"/>
	<line class="st2" x1="237.98" y1="71.74" x2="247" y2="62.73"/>
</g>
<line class="st9" x1="289.38" y1="28.7" x2="20.06" y2="249.98"/>
<g>
	<line class="st7" x1="36.24" y1="228.79" x2="45.26" y2="237.81"/>
	<line class="st7" x1="36.24" y1="237.81" x2="45.26" y2="228.79"/>
</g>
<text transform="matrix(1 0 0 1 20.0645 237.8086)" class="st3 st4 st5">T</text>
<g class="st10">
	<circle class="st11" cx="141.34" cy="150" r="130.6"/>
</g>
<g>
	<line class="st2" x1="150.34" y1="83.61" x2="159.36" y2="92.63"/>
	<line class="st2" x1="150.34" y1="92.63" x2="159.36" y2="83.61"/>
</g>
<text transform="matrix(1 0 0 1 136.0283 80.082)" class="st6 st4 st5">A</text>
<g>
	<line class="st2" x1="274.59" y1="157.71" x2="283.6" y2="166.72"/>
	<line class="st2" x1="274.59" y1="166.72" x2="283.6" y2="157.71"/>
</g>
<text transform="matrix(0.9564 0 0 1 280.8633 152.4072)" class="st6 st4 st5">C</text>
<line class="st0" x1="35.37" y1="126.43" x2="188.99" y2="170.63"/>
<g>
	<line class="st12" x1="136.83" y1="145.49" x2="145.85" y2="154.51"/>
	<line class="st12" x1="136.83" y1="154.51" x2="145.85" y2="145.49"/>
</g>
<text transform="matrix(1 0 0 1 127.626 139.3428)" class="st13 st4 st5">X</text>
</svg>
