<?xml version="1.0" encoding="utf-8"?>
<!-- Generator: Adobe Illustrator 23.0.5, SVG Export Plug-In . SVG Version: 6.00 Build 0)  -->
<svg version="1.1" id="Calque_1" xmlns="http://www.w3.org/2000/svg" xmlns:xlink="http://www.w3.org/1999/xlink" x="0px" y="0px"
	 viewBox="0 0 300 300" style="enable-background:new 0 0 300 300;" xml:space="preserve">
<style type="text/css">
	.st0{fill:none;stroke:#54BCEE;stroke-miterlimit:10;}
	.st1{fill:#56BCEE;stroke:#54BCEE;stroke-miterlimit:10;}
	.st2{fill:none;stroke:#000000;stroke-miterlimit:10;}
	.st3{fill:none;stroke:#E52827;stroke-miterlimit:10;}
	.st4{fill:#FFFFFF;stroke:#61BA77;stroke-miterlimit:10;}
	.st5{fill:#61BA77;}
	.st6{font-family:'MyriadPro-Regular';}
	.st7{font-size:21.0103px;}
	.st8{fill:#56BCEE;}
	.st9{fill:#E52827;}
	.st10{opacity:0.64;}
	.st11{fill:none;stroke:#E52827;stroke-miterlimit:10;stroke-dasharray:3.0695,5.1159;}
	.st12{fill:none;stroke:#E52827;stroke-miterlimit:10;stroke-dasharray:2.9186,4.8643;}
</style>
<path class="st0" d="M122.18,69.8c0,0-3.13,2.53-1.04,8.94c2.09,6.41,5.69,7.95,5.69,7.95l24.74-16.89H122.18z"/>
<path class="st1" d="M237.43,152.23c0,0,1.41-1.96,3.11-1.96c1.48,0,3.11,1.02,3.11,1.02v32.06L237.43,152.23z"/>
<path class="st0" d="M182.34,209c0,0,2.88-1.2,3.76,5.5c0.73,5.5-1.64,5.5-1.64,5.5h-28.42L182.34,209z"/>
<path class="st0" d="M58.59,165.76c0,0,1.6,2.83,7.12,1.49c4.03-0.98,3.87-4.42,3.87-4.42l-10.99-29.56V165.76z"/>
<polygon class="st2" points="58.59,133.28 151.57,69.8 228.46,107.35 243.66,183.34 156.04,220 84.52,203.01 "/>
<rect x="58.59" y="69.8" class="st3" width="185.07" height="150.2"/>
<g>
	<line class="st4" x1="54.12" y1="128.81" x2="63.06" y2="137.75"/>
	<line class="st4" x1="54.12" y1="137.75" x2="63.06" y2="128.81"/>
</g>
<g>
	<line class="st4" x1="150.49" y1="215.53" x2="159.43" y2="224.47"/>
	<line class="st4" x1="150.49" y1="224.47" x2="159.43" y2="215.53"/>
</g>
<g>
	<line class="st4" x1="239.19" y1="178.87" x2="248.13" y2="187.81"/>
	<line class="st4" x1="239.19" y1="187.81" x2="248.13" y2="178.87"/>
</g>
<g>
	<line class="st4" x1="147.1" y1="65.33" x2="156.04" y2="74.27"/>
	<line class="st4" x1="147.1" y1="74.27" x2="156.04" y2="65.33"/>
</g>
<text transform="matrix(1 0 0 1 145.0874 61.2686)" class="st5 st6 st7">N</text>
<text transform="matrix(1 0 0 1 31.7661 140.4297)" class="st5 st6 st7">W</text>
<text transform="matrix(1 0 0 1 150.6011 242.2773)" class="st5 st6 st7">S</text>
<text transform="matrix(1 0 0 1 253.4912 190.4229)" class="st5 st6 st7">E</text>
<text transform="matrix(1 0 0 1 248.127 152.6855)" class="st8 st6 st7">θ</text>
<text transform="matrix(1 0 0 1 58.5869 55.9038)" class="st9 st6 st7">Line</text>
<text transform="matrix(0.583 0 0 0.583 95.6064 62.9004)" class="st9 st6 st7">N</text>
<text transform="matrix(1 0 0 1 5.8379 213.0713)" class="st9 st6 st7">Line</text>
<text transform="matrix(0.583 0 0 0.583 42.8574 220.0674)" class="st9 st6 st7">W</text>
<text transform="matrix(1 0 0 1 198.9531 242.2773)" class="st9 st6 st7">Line</text>
<text transform="matrix(0.583 0 0 0.583 235.9727 249.2734)" class="st9 st6 st7">S</text>
<text transform="matrix(1 0 0 1 248.127 84.3066)" class="st9 st6 st7">Line</text>
<text transform="matrix(0.583 0 0 0.583 285.1465 91.3032)" class="st9 st6 st7">E</text>
<g class="st10">
	<g>
		<polyline class="st3" points="246.89,200.15 247.18,201.63 245.71,201.92 		"/>
		<line class="st11" x1="240.69" y1="202.91" x2="82.6" y2="234.17"/>
		<polyline class="st3" points="80.09,234.67 78.62,234.96 78.33,233.49 		"/>
		<line class="st12" x1="77.39" y1="228.72" x2="50.68" y2="93.67"/>
		<polyline class="st3" points="50.21,91.29 49.92,89.81 51.39,89.52 		"/>
		<line class="st11" x1="56.41" y1="88.53" x2="214.5" y2="57.27"/>
		<polyline class="st3" points="217.01,56.77 218.48,56.48 218.77,57.95 		"/>
		<line class="st12" x1="219.71" y1="62.72" x2="246.42" y2="197.77"/>
	</g>
</g>
</svg>
